<?xml version="1.0" encoding="UTF-8" standalone="no"?>
<!DOCTYPE svg PUBLIC "-//W3C//DTD SVG 1.1//EN" "http://www.w3.org/Graphics/SVG/1.1/DTD/svg11.dtd">
<svg xmlns="http://www.w3.org/2000/svg" xmlns:xl="http://www.w3.org/1999/xlink" version="1.1" viewBox="0 0 800 240" width="800pt" height="20pc" xmlns:dc="http://purl.org/dc/elements/1.1/"><metadata> Produced by OmniGraffle 6.6.2 <dc:date>2018-04-18 08:07:34 +0000</dc:date></metadata><defs><marker orient="auto" overflow="visible" markerUnits="strokeWidth" id="FilledArrow_Marker" viewBox="-1 -4 10 8" markerWidth="10" markerHeight="8" color="black"><g><path d="M 8 0 L 0 -3 L 0 3 Z" fill="currentColor" stroke="currentColor" stroke-width="1"/></g></marker></defs><g stroke="none" stroke-opacity="1" stroke-dasharray="none" fill="none" fill-opacity="1"><title>Canvas 3</title><rect fill="white" width="800" height="240"/><g><title>Layer 1</title><rect x="164.40945" y="31.362204" width="31" height="31" fill="#8e8e8e"/><rect x="164.40945" y="31.362204" width="31" height="31" stroke="black" stroke-linecap="round" stroke-linejoin="round" stroke-width="2"/><rect x="34.015748" y="31.362204" width="31" height="31" fill="black"/><rect x="34.015748" y="31.362204" width="31" height="31" stroke="black" stroke-linecap="round" stroke-linejoin="round" stroke-width="2"/><rect x="269.47244" y="87.874015" width="31" height="31" fill="white"/><rect x="269.47244" y="87.874015" width="31" height="31" stroke="black" stroke-linecap="round" stroke-linejoin="round" stroke-width="2"/><line x1="66.015748" y1="46.862204" x2="153.50945" y2="46.862204" marker-end="url(#FilledArrow_Marker)" stroke="black" stroke-linecap="round" stroke-linejoin="round" stroke-width="1"/><rect x="34.015748" y="100.72047" width="31" height="31" fill="black"/><rect x="34.015748" y="100.72047" width="31" height="31" stroke="black" stroke-linecap="round" stroke-linejoin="round" stroke-width="2"/><rect x="34.015748" y="170.07874" width="31" height="31" fill="black"/><rect x="34.015748" y="170.07874" width="31" height="31" stroke="black" stroke-linecap="round" stroke-linejoin="round" stroke-width="2"/><rect x="195.77165" y="31.362204" width="31" height="31" fill="#8e8e8e"/><rect x="195.77165" y="31.362204" width="31" height="31" stroke="black" stroke-linecap="round" stroke-linejoin="round" stroke-width="2"/><rect x="175.74803" y="116.401574" width="31" height="31" fill="#8e8e8e"/><rect x="175.74803" y="116.401574" width="31" height="31" stroke="black" stroke-linecap="round" stroke-linejoin="round" stroke-width="2"/><line x1="66.015748" y1="118.04601" x2="164.90807" y2="128.98735" marker-end="url(#FilledArrow_Marker)" stroke="black" stroke-linecap="round" stroke-linejoin="round" stroke-width="1"/><line x1="66.015748" y1="179.32982" x2="165.48975" y2="141.65681" marker-end="url(#FilledArrow_Marker)" stroke="black" stroke-linecap="round" stroke-linejoin="round" stroke-width="1"/><rect x="300.65354" y="87.874015" width="31" height="31" fill="white"/><rect x="300.65354" y="87.874015" width="31" height="31" stroke="black" stroke-linecap="round" stroke-linejoin="round" stroke-width="2"/><rect x="323.1496" y="11.3385826" width="31" height="31" fill="white"/><rect x="323.1496" y="11.3385826" width="31" height="31" stroke="black" stroke-linecap="round" stroke-linejoin="round" stroke-width="2"/><rect x="371.51968" y="56.692913" width="31" height="31" fill="white"/><rect x="371.51968" y="56.692913" width="31" height="31" stroke="black" stroke-linecap="round" stroke-linejoin="round" stroke-width="2"/><rect x="371.51968" y="136.24409" width="31" height="31" fill="white"/><rect x="371.51968" y="136.24409" width="31" height="31" stroke="black" stroke-linecap="round" stroke-linejoin="round" stroke-width="2"/><rect x="269.47244" y="178.58268" width="31" height="31" fill="white"/><rect x="269.47244" y="178.58268" width="31" height="31" stroke="black" stroke-linecap="round" stroke-linejoin="round" stroke-width="2"/><rect x="300.65354" y="178.58268" width="31" height="31" fill="white"/><rect x="300.65354" y="178.58268" width="31" height="31" stroke="black" stroke-linecap="round" stroke-linejoin="round" stroke-width="2"/><line x1="181.41732" y1="48.188976" x2="259.73559" y2="89.925173" marker-end="url(#FilledArrow_Marker)" stroke="black" stroke-linecap="round" stroke-linejoin="round" stroke-width="1"/><line x1="227.77165" y1="44.26843" x2="312.3697" y2="30.969743" marker-end="url(#FilledArrow_Marker)" stroke="black" stroke-linecap="round" stroke-linejoin="round" stroke-width="1"/><line x1="207.74803" y1="133.57394" x2="360.67015" y2="149.073425" marker-end="url(#FilledArrow_Marker)" stroke="black" stroke-linecap="round" stroke-linejoin="round" stroke-width="1"/></g></g></svg>
